<?xml version="1.0" standalone="no"?>
<!DOCTYPE svg PUBLIC "-//W3C//DTD SVG 20010904//EN"
 "http://www.w3.org/TR/2001/REC-SVG-20010904/DTD/svg10.dtd">
<svg version="1.0" xmlns="http://www.w3.org/2000/svg"
 width="680.000000pt" height="680.000000pt" viewBox="0 0 680.000000 680.000000"
 preserveAspectRatio="xMidYMid meet">
<metadata>
Created by potrace 1.14, written by Peter Selinger 2001-2017
</metadata>
<g transform="translate(0.000000,680.000000) scale(0.100000,-0.100000)"
fill="#000000" stroke="none">
<path d="M1208 4755 c-2 -2 -38 -5 -81 -8 -94 -7 -224 -39 -320 -77 -290 -118
-527 -376 -626 -680 -12 -36 -24 -81 -27 -100 -3 -19 -7 -37 -9 -40 -13 -22
-17 -254 -17 -965 0 -451 1 -824 1 -830 1 -11 2176 -13 2187 -2 7 6 6 1617 -1
1697 -10 113 -18 150 -55 261 -87 257 -285 488 -530 616 -131 69 -254 105
-405 119 -38 3 -80 7 -92 9 -12 1 -24 1 -25 0z m-56 -147 c-29 -42 -60 -107
-67 -138 -1 -8 -8 -34 -14 -58 -21 -77 -20 -249 3 -347 16 -69 23 -83 136
-290 37 -68 52 -143 47 -228 -3 -45 -11 -100 -17 -122 -19 -62 -61 -165 -69
-165 -3 0 -24 5 -46 11 -176 45 -331 222 -395 450 -29 105 -41 240 -29 335 16
134 39 214 86 309 81 163 205 272 321 282 31 3 59 7 61 9 2 2 6 2 9 0 2 -3
-10 -24 -26 -48z m270 21 c30 -16 107 -77 136 -109 31 -34 82 -107 82 -117 0
-5 6 -15 13 -21 6 -7 12 -16 13 -20 0 -4 9 -25 19 -47 9 -22 28 -80 40 -129
27 -105 31 -282 10 -392 -35 -182 -141 -366 -261 -450 -48 -34 -127 -72 -161
-77 l-32 -5 21 51 c11 29 21 57 22 62 1 6 8 35 14 65 35 159 19 242 -87 455
-87 174 -91 189 -96 345 -5 166 36 284 128 366 42 37 54 43 83 39 18 -2 44 -9
56 -16z m-628 -111 c-70 -95 -119 -201 -150 -323 -44 -172 -36 -369 22 -543
46 -138 129 -272 215 -345 l39 -34 -38 -21 c-85 -50 -125 -113 -127 -202 -1
-30 -5 -56 -8 -58 -4 -1 -43 16 -87 38 -119 60 -273 101 -390 103 -19 1 -37 5
-40 9 -8 11 -4 595 4 656 38 272 193 523 421 681 41 29 172 101 182 101 2 0
-18 -28 -43 -62z m906 19 c30 -17 83 -50 118 -74 71 -50 212 -190 212 -210 0
-7 3 -13 8 -13 10 0 54 -71 95 -155 37 -75 68 -172 86 -271 12 -65 19 -659 8
-671 -4 -3 -26 -7 -49 -9 -165 -11 -334 -63 -459 -140 l-35 -22 2 56 c3 95
-35 165 -120 219 l-39 25 50 47 c260 242 331 704 162 1057 -33 69 -95 165
-116 177 -19 12 -16 27 5 20 9 -4 42 -20 72 -36z m-625 -1381 c58 -38 77 -138
36 -195 -83 -116 -261 -59 -261 83 0 110 129 175 225 112z m455 1 c85 -59 76
-193 -15 -241 -141 -73 -279 101 -171 218 49 54 128 64 186 23z m-290 6 c0 -5
-5 -15 -10 -23 -9 -13 -11 -13 -19 0 -5 8 -7 18 -5 22 6 10 34 11 34 1z m-793
-154 c15 -6 29 -10 31 -9 2 1 37 -11 78 -26 l75 -29 -5 -45 c-8 -85 -19 -150
-25 -150 -3 0 -69 63 -146 141 l-140 141 52 -6 c28 -3 64 -11 80 -17z m1543
-124 c-80 -79 -148 -145 -151 -145 -3 0 -12 35 -19 78 -8 42 -15 85 -17 95 -2
12 4 21 17 24 11 3 20 10 20 16 0 6 3 7 7 4 3 -4 11 -3 17 1 16 12 125 51 160
56 16 3 30 7 32 8 2 2 20 5 41 6 l38 3 -145 -146z m-1585 -44 c74 -74 134
-135 132 -137 -2 -2 -46 -6 -99 -9 l-96 -6 -25 73 c-28 79 -35 104 -42 140 -3
13 -8 37 -11 53 -3 17 -4 28 0 25 3 -3 66 -65 141 -139z m1769 66 c-7 -34 -26
-99 -42 -142 l-29 -80 -99 3 c-54 2 -100 5 -102 7 -5 5 273 282 279 278 4 -1
1 -31 -7 -66z m-1321 -126 c39 -37 47 -50 42 -70 -3 -15 -8 -36 -10 -48 -3
-13 -7 -33 -10 -45 -3 -13 -8 -39 -11 -58 -12 -65 -16 -64 -108 29 l-88 88 12
79 c7 43 14 86 15 94 2 8 4 23 4 33 1 16 9 13 54 -19 28 -21 74 -58 100 -83z
m881 72 c7 -31 12 -59 21 -118 3 -22 8 -47 10 -55 3 -10 -32 -52 -95 -115 -55
-55 -101 -94 -101 -87 -1 6 -2 15 -3 20 -5 22 -19 89 -22 102 -6 35 -15 76
-19 87 -7 20 170 193 197 193 3 0 9 -12 12 -27z m-426 -29 c41 -32 64 -86 57
-133 -26 -164 -269 -158 -280 7 -9 128 121 202 223 126z m-308 -34 c0 -5 -7
-7 -15 -4 -8 4 -15 8 -15 10 0 2 7 4 15 4 8 0 15 -4 15 -10z m470 0 c0 -5 -4
-10 -10 -10 -5 0 -10 5 -10 10 0 6 5 10 10 10 6 0 10 -4 10 -10z m763 -332
c-1 -150 -2 -282 -2 -293 -1 -20 -7 -20 -266 -20 -146 0 -265 2 -265 5 0 3 25
18 55 34 93 49 204 139 292 238 43 49 124 180 154 250 13 32 26 58 29 58 3 0
4 -123 3 -272z m-1869 17 c94 -125 191 -210 328 -288 l74 -42 -270 0 -271 0 0
287 -1 286 44 -86 c24 -48 67 -118 96 -157z m644 106 c41 -71 87 -177 96 -221
3 -14 8 -36 11 -50 23 -104 26 -104 -98 19 -110 109 -114 115 -107 145 5 17
16 66 25 108 9 43 21 76 25 73 5 -3 26 -36 48 -74z m-285 -57 c59 -59 107
-109 107 -111 0 -2 -53 -1 -117 3 -65 3 -131 6 -148 7 -31 2 -46 14 -107 89
-32 39 -68 94 -68 103 0 5 48 9 145 13 l80 3 108 -107z m1336 89 c3 -3 0 -8
-6 -10 -7 -3 -13 -9 -13 -15 0 -12 -51 -79 -98 -129 -32 -35 -38 -37 -98 -38
-35 0 -100 -3 -144 -7 -44 -3 -80 -3 -80 0 0 3 47 52 105 111 l106 105 111 -5
c62 -3 114 -8 117 -12z m-581 -10 c1 -10 10 -57 20 -105 l19 -87 -100 -98 -99
-98 7 50 c9 71 61 219 102 293 36 64 47 74 51 45z m-218 -178 c-11 -27 -22
-68 -26 -90 -6 -35 -8 -37 -16 -16 -4 12 -10 35 -13 50 -3 16 -11 44 -19 63
-9 20 -14 37 -11 39 2 2 26 4 53 4 l50 0 -18 -50z m-466 -77 l109 -3 35 -35
c19 -19 59 -60 89 -91 l54 -57 -43 9 c-79 15 -91 18 -142 35 -65 21 -175 76
-232 115 -24 16 -44 31 -44 33 0 1 15 1 33 0 17 -2 81 -4 141 -6z m1016 -10
c-32 -30 -202 -115 -272 -137 -37 -11 -91 -23 -120 -27 l-53 -7 90 88 89 88
96 4 c52 3 96 6 97 6 1 1 22 2 47 2 44 1 45 0 26 -17z"/>
<path d="M2800 4355 c-3 -174 -1 -938 2 -941 5 -4 69 -7 105 -5 21 1 22 3 21
187 0 102 2 187 4 189 2 2 80 6 173 9 94 2 177 6 185 9 135 38 207 102 234
205 44 166 -42 328 -188 358 -12 2 -34 7 -51 10 -16 4 -132 7 -257 8 l-228 2
0 -31z m528 -109 c99 -51 102 -242 4 -299 -46 -27 -64 -29 -239 -33 -170 -3
-170 -3 -165 38 1 3 2 70 3 149 0 78 3 147 5 154 7 18 354 11 392 -9z"/>
<path d="M4699 4128 c-19 -5 -58 -27 -86 -48 l-52 -39 -3 37 c-3 31 -7 36 -25
35 -13 0 -41 -1 -62 -2 l-39 -1 -1 -480 0 -480 22 -5 c44 -9 107 -1 108 15 0
8 0 82 0 164 l-1 150 22 -20 c13 -11 37 -26 53 -33 45 -20 157 -22 209 -5 88
30 177 137 191 230 14 87 13 214 -2 266 -8 29 -15 59 -15 66 -2 24 -85 107
-130 130 -49 24 -136 33 -189 20z m121 -113 c61 -31 91 -103 96 -228 8 -238
-110 -357 -272 -271 -80 42 -82 45 -83 142 -1 48 -3 125 -4 172 -3 84 -3 85
32 123 19 21 51 47 70 57 44 23 121 26 161 5z"/>
<path d="M3841 4114 c-95 -25 -137 -61 -166 -143 -18 -52 -9 -63 56 -59 43 2
54 7 59 23 16 62 76 95 170 95 113 0 163 -40 164 -132 1 -58 5 -56 -104 -59
-189 -6 -323 -66 -364 -163 -22 -51 -15 -146 13 -187 47 -70 133 -103 241 -95
68 5 161 35 187 61 23 24 36 18 31 -15 -5 -31 -3 -32 62 -32 65 0 60 -26 58
263 -1 339 -10 373 -116 425 -44 22 -69 27 -145 29 -56 2 -113 -3 -146 -11z
m286 -446 c-2 -75 -4 -82 -32 -104 -36 -29 -129 -65 -170 -67 -86 -2 -155 45
-155 108 0 92 74 139 230 144 35 1 66 3 67 5 2 1 16 1 33 -2 l30 -4 -3 -80z"/>
<path d="M6092 4115 c-96 -22 -159 -83 -177 -172 l-6 -32 58 0 c56 1 88 13 78
30 -3 4 10 24 29 43 40 40 93 52 182 43 84 -9 121 -47 125 -127 3 -55 1 -57
-38 -59 -226 -10 -277 -22 -359 -80 -52 -36 -96 -120 -88 -168 2 -15 6 -42 9
-60 7 -43 72 -107 127 -125 51 -18 161 -17 224 0 23 7 58 23 79 38 43 29 49
27 36 -9 -9 -24 -8 -25 27 -29 20 -1 51 -2 68 0 l31 3 -2 272 c-2 234 -4 278
-19 314 -23 54 -73 99 -128 114 -59 17 -192 19 -256 4z m292 -440 c1 -64 -2
-81 -19 -100 -34 -39 -129 -76 -195 -77 -49 0 -127 37 -136 65 -36 106 37 173
196 184 41 3 76 6 77 7 1 0 18 1 39 0 l38 -1 0 -78z"/>
<path d="M5210 4110 l-26 -5 1 -270 2 -270 26 -52 c37 -73 93 -105 190 -109
83 -4 141 17 195 69 l32 31 0 -47 c0 -26 5 -47 10 -48 13 -2 40 -2 88 0 l37 1
-2 346 c-1 191 -4 349 -7 352 -6 5 -107 4 -113 -2 -2 -2 -4 -116 -4 -254 l-1
-251 -38 -35 c-44 -40 -72 -56 -107 -62 -14 -3 -28 -6 -32 -7 -19 -4 -89 16
-108 32 -36 30 -42 82 -40 339 2 236 1 242 -18 243 -11 0 -29 2 -40 3 -11 1
-31 -1 -45 -4z"/>
<path d="M3130 3123 c-150 -23 -268 -116 -329 -261 -29 -71 -36 -117 -36 -252
0 -93 5 -129 24 -188 42 -130 131 -227 251 -273 63 -25 199 -34 270 -18 103
23 210 95 249 168 16 29 39 111 38 133 0 14 -11 17 -62 17 l-62 -1 -13 -51
c-16 -62 -79 -128 -142 -149 -63 -21 -172 -16 -233 11 -134 59 -200 191 -194
389 7 234 137 376 334 366 65 -4 85 -8 133 -33 48 -25 86 -68 103 -118 6 -21
16 -41 20 -44 5 -3 35 -5 66 -4 l58 1 -3 33 c-9 83 -92 184 -193 231 -37 17
-77 33 -90 36 -30 7 -156 12 -189 7z"/>
<path d="M4652 3113 c-73 -25 -113 -95 -116 -205 l-2 -63 -51 -3 -51 -3 0 -48
-1 -48 40 1 c21 1 45 -1 52 -6 9 -5 12 -78 12 -299 l0 -292 57 -3 c37 -2 58 1
61 9 2 7 4 140 3 295 -1 156 1 287 4 291 6 10 236 9 245 -1 4 -3 7 -138 8
-300 l2 -293 58 -1 57 0 1 30 c0 17 1 152 2 300 l2 269 65 4 c36 2 70 5 75 7
9 3 11 37 6 84 -1 8 -20 11 -66 10 l-65 -3 0 62 c0 83 27 117 88 115 23 -1 47
-3 54 -4 18 -4 23 92 6 103 -7 5 -47 7 -89 5 -144 -7 -195 -71 -198 -249 l-1
-38 -87 5 c-49 3 -103 5 -122 6 l-33 0 5 54 c9 102 43 133 125 115 21 -5 32
-3 33 5 5 96 5 96 -26 101 -42 8 -113 2 -153 -12z"/>
<path d="M3944 2844 c-161 -47 -238 -178 -229 -384 5 -121 27 -182 83 -239 74
-73 128 -95 242 -95 78 -1 103 3 140 21 126 61 180 156 186 328 3 80 -14 173
-41 225 -33 63 -126 134 -193 146 -57 11 -149 10 -188 -2z m186 -128 c31 -15
54 -37 75 -70 28 -46 29 -54 30 -160 0 -96 -3 -117 -23 -158 -27 -54 -64 -85
-128 -104 -91 -27 -198 35 -227 134 -9 28 -14 83 -13 138 4 138 42 203 143
238 47 16 85 12 143 -18z"/>
<path d="M5471 2849 c-47 -9 -106 -37 -141 -66 -72 -61 -122 -199 -114 -319
10 -151 67 -247 178 -304 65 -33 75 -35 165 -35 83 0 104 4 153 27 31 14 69
40 85 58 26 29 66 118 58 130 -2 3 -30 5 -62 4 -74 -2 -75 -2 -69 -13 3 -5 -5
-24 -17 -42 -60 -89 -218 -96 -300 -14 -25 26 -52 95 -59 155 l-3 25 257 0
c141 0 259 3 263 7 8 8 8 114 1 127 -3 4 -8 23 -11 42 -12 69 -82 157 -153
192 -57 29 -155 40 -231 26z m177 -115 c15 -10 32 -22 38 -28 17 -18 43 -76
50 -112 l6 -33 -188 2 c-213 2 -209 0 -169 84 39 83 90 114 183 108 29 -2 65
-11 80 -21z"/>
<path d="M6184 2838 c-57 -19 -65 -24 -113 -68 -115 -107 -138 -369 -43 -508
33 -48 72 -81 132 -113 38 -19 61 -23 145 -23 93 -1 105 1 165 31 36 18 76 46
88 63 28 37 53 104 44 116 -9 12 -122 13 -122 1 0 -30 -35 -76 -74 -95 -54
-27 -76 -31 -138 -21 -90 14 -150 82 -163 185 l-7 50 253 -1 c140 -1 259 0
265 2 10 4 10 53 0 140 -7 53 -45 128 -88 172 -77 79 -225 109 -344 69z m219
-105 c34 -20 87 -110 87 -149 0 -22 -1 -22 -189 -22 l-189 -1 14 52 c17 67 40
97 95 125 52 28 129 25 182 -5z"/>
</g>
</svg>
