<?xml version="1.0" encoding="utf-8"?>
<!-- Generator: Adobe Illustrator 23.0.1, SVG Export Plug-In . SVG Version: 6.00 Build 0)  -->
<svg version="1.1" id="Layer_1" xmlns="http://www.w3.org/2000/svg" xmlns:xlink="http://www.w3.org/1999/xlink" x="0px" y="0px"
	 viewBox="0 0 85 65" style="enable-background:new 0 0 85 65;" xml:space="preserve">
<style type="text/css">
	.st0{fill:#FFFFFF;}
</style>
<g>
	<g>
		<path class="st0" d="M29,49.4H1.6V29.3c0-7.5,6.1-13.7,13.7-13.7S29,21.8,29,29.3C29,29.3,29,49.4,29,49.4z M2.8,48.2h25.1V29.3
			c0-6.9-5.6-12.5-12.6-12.5S2.8,22.4,2.8,29.3V48.2z"/>
		<path class="st0" d="M15.3,49.1"/>
		<g>
			<path class="st0" d="M14.9,49.3C7.8,49.3,2,43.5,2,36.4c0-0.3,0.3-0.6,0.6-0.6c7.1,0,12.9,5.8,12.9,12.9
				C15.5,49,15.2,49.3,14.9,49.3z M3.2,37c0.3,5.9,5.1,10.7,11,11C13.9,42.1,9.2,37.3,3.2,37z"/>
			<path class="st0" d="M15.7,49.3c-0.3,0-0.6-0.3-0.6-0.6c0-7.1,5.8-12.9,12.9-12.9c0.3,0,0.6,0.3,0.6,0.6
				C28.6,43.5,22.9,49.3,15.7,49.3z M27.4,37c-5.9,0.3-10.7,5.1-11,11C22.3,47.7,27.1,42.9,27.4,37z"/>
		</g>
		<g>
			<path class="st0" d="M15.3,35.4c-4.2,0-7.6-4.5-7.6-9.9s3.4-9.9,7.6-9.9s7.6,4.5,7.6,9.9S19.5,35.4,15.3,35.4z M15.3,16.5
				c-3.7,0-6.6,4-6.6,8.9s3,8.9,6.6,8.9s6.6-4,6.6-8.9S19,16.5,15.3,16.5z"/>
			<path class="st0" d="M15.3,35.2c-0.1,0-0.2,0-0.3-0.1c-0.3-0.1-0.4-0.5-0.3-0.8c1.9-4.1,0.9-5.7-0.1-7.5c-0.5-0.8-1-1.7-1.2-2.7
				C12.3,18,15.7,16,15.9,16c0.3-0.2,0.7-0.1,0.8,0.3c0.2,0.3,0,0.7-0.3,0.8c-0.1,0.1-2.8,1.6-1.8,6.9c0.2,0.9,0.6,1.6,1,2.3
				c1.1,1.9,2.3,4,0.1,8.6C15.8,35.1,15.5,35.2,15.3,35.2z"/>
		</g>
		<path class="st0" d="M12.4,40c-1.7,0-3-1.3-3-3s1.4-3,3-3s3,1.3,3,3S14,40,12.4,40z M12.4,35.2c-1,0-1.8,0.8-1.8,1.8
			c0,1,0.8,1.8,1.8,1.8s1.8-0.8,1.8-1.8S13.4,35.2,12.4,35.2z"/>
		<path class="st0" d="M15.3,44.1c-1.7,0-3-1.3-3-3s1.4-3,3-3s3,1.3,3,3S16.9,44.1,15.3,44.1z M15.3,39.3c-1,0-1.8,0.8-1.8,1.8
			s0.8,1.8,1.8,1.8c1,0,1.8-0.8,1.8-1.8S16.2,39.3,15.3,39.3z"/>
		<path class="st0" d="M18.1,40c-1.7,0-3-1.3-3-3s1.4-3,3-3s3,1.3,3,3S19.8,40,18.1,40z M18.1,35.2c-1,0-1.8,0.8-1.8,1.8
			c0,1,0.8,1.8,1.8,1.8c1,0,1.8-0.8,1.8-1.8S19.1,35.2,18.1,35.2z"/>
		<path class="st0" d="M15.3,49.5c-0.1,0-0.2,0-0.3-0.1L2.3,36.7c-0.2-0.2-0.2-0.4,0-0.6s0.4-0.2,0.6,0l12.4,12.4l12.4-12.4
			c0.2-0.2,0.4-0.2,0.6,0s0.2,0.4,0,0.6L15.6,49.4C15.5,49.5,15.4,49.5,15.3,49.5z"/>
		<g>
			<path class="st0" d="M10.8,45.7C10.8,45.7,10.8,45.7,10.8,45.7l-4.1-0.2c-0.2,0-0.4-0.2-0.4-0.4s0.2-0.4,0.4-0.4l3.7,0.2l0.9-4.3
				c0.1-0.2,0.3-0.4,0.5-0.3c0.2,0,0.4,0.3,0.3,0.5l-1,4.6C11.2,45.5,11,45.7,10.8,45.7z"/>
			<path class="st0" d="M4,42.3c-0.2,0-0.4-0.2-0.4-0.4c0-0.2,0.2-0.4,0.4-0.5l3.5-0.2L8,37.8c0-0.2,0.3-0.4,0.5-0.3
				c0.2,0,0.4,0.3,0.4,0.5l-0.6,3.8c0,0.2-0.2,0.3-0.4,0.3L4,42.3C4,42.3,4,42.3,4,42.3z"/>
		</g>
		<g>
			<path class="st0" d="M19.5,45.7c-0.2,0-0.4-0.1-0.4-0.3l-1-4.6c0-0.2,0.1-0.5,0.3-0.5c0.2,0,0.5,0.1,0.5,0.3l0.9,4.3l3.7-0.2
				c0.2,0,0.4,0.2,0.4,0.4s-0.2,0.4-0.4,0.4L19.5,45.7C19.5,45.7,19.5,45.7,19.5,45.7z"/>
			<path class="st0" d="M26.4,42.3C26.3,42.3,26.3,42.3,26.4,42.3l-3.9-0.2c-0.2,0-0.4-0.2-0.4-0.3l-0.6-3.8c0-0.2,0.1-0.5,0.4-0.5
				c0.2,0,0.5,0.1,0.5,0.3l0.6,3.5l3.5,0.2c0.2,0,0.4,0.2,0.4,0.5C26.8,42.1,26.6,42.3,26.4,42.3z"/>
		</g>
	</g>
	<path class="st0" d="M35,20.2h4.5c1,0,1.8,0.1,2.5,0.3c0.7,0.2,1.2,0.6,1.6,1.2c0.4,0.6,0.6,1.3,0.6,2.1c0,1.2-0.4,2.1-1.2,2.8
		c-0.8,0.6-1.9,1-3.4,1h-3v4.8H35L35,20.2L35,20.2z M36.6,26.1h3.1c1,0,1.8-0.2,2.2-0.6c0.4-0.4,0.7-0.9,0.7-1.7
		c0-0.5-0.1-0.9-0.4-1.3c-0.2-0.4-0.5-0.6-0.9-0.7s-0.9-0.1-1.6-0.1h-3C36.6,21.7,36.6,26.1,36.6,26.1z"/>
	<path class="st0" d="M51.6,31.5c-0.8,0.7-1.8,1.1-3.1,1.1c-0.9,0-1.6-0.2-2.2-0.7c-0.6-0.5-0.8-1.1-0.8-1.8c0-2,1.8-3.1,5.3-3.1
		h0.8c0-0.6,0-1.1-0.1-1.4c-0.1-0.3-0.3-0.5-0.5-0.7c-0.3-0.2-0.8-0.3-1.5-0.3c-1.4,0-2.1,0.5-2.2,1.5h-1.5c0.1-1.8,1.4-2.7,3.8-2.7
		c1.1,0,2,0.2,2.6,0.7s0.9,1.3,0.9,2.6v5.7h-1.5L51.6,31.5L51.6,31.5z M51.6,30v-1.9h-1.1c-2.3,0-3.4,0.6-3.4,1.8
		c0,0.5,0.2,0.8,0.5,1s0.8,0.4,1.3,0.4c0.5,0,1-0.1,1.5-0.4C51,30.8,51.3,30.4,51.6,30z"/>
	<path class="st0" d="M57,24.6c0.7-0.8,1.5-1.3,2.5-1.3c1.2,0,2,0.4,2.7,1.2s0.9,1.9,0.9,3.3c0,1.4-0.3,2.6-1,3.4
		c-0.7,0.8-1.6,1.3-2.7,1.3c-1,0-1.8-0.3-2.4-0.9v4.1h-1.6V23.6H57L57,24.6L57,24.6z M57,30.3c0.7,0.7,1.4,1.1,2.3,1.1
		c0.7,0,1.2-0.3,1.6-0.9c0.4-0.6,0.6-1.4,0.6-2.6c0-1.1-0.2-1.9-0.6-2.5c-0.4-0.6-0.9-0.8-1.6-0.8c-0.9,0-1.7,0.5-2.4,1.5
		C57,26.1,57,30.3,57,30.3z"/>
	<path class="st0" d="M70.4,31.2c-0.8,0.9-1.7,1.3-2.6,1.3c-2,0-3-1.1-3-3.2v-5.7h1.6v5.7c0,0.7,0.1,1.2,0.4,1.5
		c0.3,0.3,0.7,0.5,1.3,0.5c0.9,0,1.7-0.5,2.4-1.4v-6.3H72v8.8h-1.6C70.4,32.3,70.4,31.2,70.4,31.2z"/>
	<path class="st0" d="M79.8,31.5c-0.8,0.7-1.8,1.1-3.1,1.1c-0.9,0-1.6-0.2-2.2-0.7c-0.6-0.5-0.8-1.1-0.8-1.8c0-2,1.8-3.1,5.3-3.1
		h0.8c0-0.6,0-1.1-0.1-1.4c-0.1-0.3-0.3-0.5-0.6-0.7c-0.3-0.2-0.8-0.3-1.4-0.3c-1.4,0-2.1,0.5-2.2,1.5h-1.6c0.1-1.8,1.4-2.7,3.8-2.7
		c1.1,0,2,0.2,2.6,0.7s0.9,1.3,0.9,2.6v5.7h-1.6L79.8,31.5L79.8,31.5z M79.8,30v-1.9h-1.1c-2.3,0-3.4,0.6-3.4,1.8
		c0,0.5,0.2,0.8,0.5,1s0.8,0.4,1.3,0.4c0.5,0,1-0.1,1.5-0.4C79.2,30.8,79.6,30.4,79.8,30z"/>
	<path class="st0" d="M40.1,48.5c-1.7,0-3.1-0.6-4.1-1.7c-1-1.1-1.5-2.7-1.5-4.6s0.5-3.5,1.5-4.6c1-1.1,2.4-1.7,4.1-1.7
		c1.3,0,2.4,0.4,3.4,1.1c0.9,0.7,1.5,1.7,1.6,2.8h-1.7c-0.1-0.8-0.4-1.4-1-1.8c-0.6-0.5-1.3-0.7-2.3-0.7c-1.2,0-2.2,0.4-2.9,1.3
		c-0.7,0.8-1.1,2-1.1,3.6c0,1.6,0.4,2.8,1.1,3.6s1.7,1.3,2.9,1.3c1,0,1.7-0.2,2.3-0.7c0.6-0.5,0.9-1.1,1-2H45
		c-0.1,1.3-0.6,2.3-1.5,3C42.6,48.1,41.4,48.5,40.1,48.5z"/>
	<path class="st0" d="M50.5,39.3c1.3,0,2.3,0.4,3,1.2c0.8,0.8,1.1,1.9,1.1,3.4c0,1.5-0.4,2.6-1.1,3.4c-0.8,0.8-1.7,1.2-3,1.2
		c-1.2,0-2.2-0.4-3-1.2s-1.1-1.9-1.1-3.4c0-1.5,0.4-2.6,1.1-3.4C48.3,39.7,49.3,39.3,50.5,39.3z M50.5,47.3c0.7,0,1.3-0.3,1.8-0.8
		c0.5-0.6,0.7-1.4,0.7-2.5s-0.2-2-0.7-2.5s-1.1-0.8-1.8-0.8s-1.3,0.3-1.8,0.8c-0.5,0.6-0.7,1.4-0.7,2.5s0.2,2,0.7,2.5
		C49.2,47,49.8,47.3,50.5,47.3z"/>
	<path class="st0" d="M58.2,40.7v7.5h-1.5v-7.5h-1.3v-1.2h1.3v-0.8c0-1.8,0.8-2.8,2.5-2.8c0.5,0,0.9,0,1.2,0.1v1.3
		c-0.3,0-0.6-0.1-0.9-0.1c-0.4,0-0.7,0.1-0.8,0.3s-0.3,0.6-0.3,1.1v0.8h1.7v1.2L58.2,40.7L58.2,40.7z"/>
	<path class="st0" d="M62.9,40.7v7.5h-1.5v-7.5h-1.3v-1.2h1.3v-0.8c0-1.8,0.8-2.8,2.5-2.8c0.5,0,0.9,0,1.2,0.1v1.3
		c-0.3,0-0.6-0.1-0.9-0.1c-0.4,0-0.7,0.1-0.8,0.3c-0.2,0.2-0.3,0.6-0.3,1.1v0.8h1.7v1.2L62.9,40.7L62.9,40.7z"/>
	<path class="st0" d="M69.5,48.5c-1.3,0-2.3-0.4-3.1-1.2c-0.8-0.8-1.2-1.9-1.2-3.4c0-1.4,0.4-2.5,1.1-3.4c0.8-0.8,1.8-1.2,3-1.2
		c1.3,0,2.3,0.4,3,1.2c0.8,0.8,1.1,1.9,1.1,3.4v0.4h-6.6c0.1,1,0.3,1.8,0.8,2.3c0.5,0.5,1.1,0.7,1.8,0.7c0.6,0,1-0.1,1.5-0.4
		c0.4-0.3,0.7-0.7,0.7-1.2h1.6c-0.1,0.9-0.5,1.6-1.2,2.1C71.4,48.2,70.5,48.5,69.5,48.5z M71.8,43c-0.1-0.8-0.4-1.5-0.8-1.9
		c-0.4-0.4-1-0.6-1.6-0.6c-0.6,0-1.2,0.2-1.6,0.6c-0.4,0.4-0.7,1-0.8,1.9H71.8z"/>
	<path class="st0" d="M78.9,48.5c-1.3,0-2.3-0.4-3.1-1.2c-0.8-0.8-1.2-1.9-1.2-3.4c0-1.4,0.4-2.5,1.1-3.4c0.8-0.8,1.8-1.2,3-1.2
		c1.3,0,2.3,0.4,3,1.2c0.8,0.8,1.1,1.9,1.1,3.4v0.4h-6.6c0.1,1,0.3,1.8,0.8,2.3c0.5,0.5,1.1,0.7,1.8,0.7c0.6,0,1-0.1,1.5-0.4
		c0.4-0.3,0.7-0.7,0.7-1.2h1.6c-0.1,0.9-0.5,1.6-1.2,2.1C80.8,48.2,79.9,48.5,78.9,48.5z M81.2,43c-0.1-0.8-0.4-1.5-0.8-1.9
		c-0.4-0.4-1-0.6-1.6-0.6c-0.6,0-1.2,0.2-1.6,0.6c-0.4,0.4-0.7,1-0.8,1.9H81.2z"/>
</g>
</svg>
